<?xml version="1.0" ?><svg id="Layer_1" style="enable-background:new 0 0 30 30;" version="1.1" viewBox="0 0 30 30" xml:space="preserve" xmlns="http://www.w3.org/2000/svg" xmlns:xlink="http://www.w3.org/1999/xlink"><style type="text/css">
	.st0{fill:#2CC0FE;}
	.st1{opacity:0.33;fill:#B5E7FE;}
</style><path d="M447.894,207.354"/><path class="st0" d="M456.389,198.592c0,0-1.19-1.19-4.212,0c0,0-5.861-5.448-11.538,1.282c0,0-8.012-0.183-7.6,7.417  c0,0-9.478,5.54,0.504,10.027c0,0,4.395,6.685,10.256,1.557c0,0,7.509,5.586,10.256-0.824c0,0,6.227,7.326,9.981,0.275  c0,0,6.685,6.501,11.629-0.641c0,0,12.091,4.53,11.355-9.731c0,0-2.198-4.005-5.036-3.73c0,0-1.74-9.615-8.791-7.142  c0,0-8.516-4.212-12.362,1.19C460.83,198.272,457.382,198.106,456.389,198.592z"/><path class="st1" d="M462.395,200.646c0,0,4.891-6.325,9.298,0c0,0,6.838-2.806,8.459,4.196c0.101,0.435,0,1.786,0,1.786  s3.022-0.069,4.739,2.335c0,0,1.648,8.104-8.104,7.211c0,0,0.036-0.57-2.974,2.383l1.852-0.873c0,0,7.917,3.022,11.387-4.327  c0,0,1.959-6.387-4.359-9.134c0,0-2.083-9.546-10.382-7.005c0,0-6.444-4.876-11.046,0.893c0,0-2.678,1.292,0.824,2.535"/><path class="st1" d="M454.02,201.805c0,0-5.002-7.52-9.409-0.939c0,0-6.726-1.981-8.348,5.305c-0.101,0.453,0,1.858,0,1.858  s-3.421-0.391-4.229,2.533c-0.807,2.918-0.129,6.035,9.658,6.478c0.88,0.04,5.185,0.973,0.911,3.402c0,0-0.538-0.348-0.739-0.414  c-3.054-1.017-7.005-0.927-11.69-5.391c0,0-0.932-5.626,3.62-7.978c0,0-0.137-7.337,10.31-8.421c0,0,0.61-4.583,13.693,0.98  c0,0,0.031,1.293-3.471,2.586"/><ellipse class="st1" cx="468.287" cy="202.789" rx="11.538" ry="6.288"/><path class="st1" d="M453.524,203.267c-2.015,1.899-4.165,5.453-9.304,5.453s-9.304-2.441-9.304-5.453  c0-1.815,2.792-2.729,5.723-4.033c1.934-0.86,3.635-2.503,5.677-2.503C451.455,196.73,456.079,200.859,453.524,203.267z"/><path d="M486.513,206.083c-0.927-1.055-1.867-1.767-2.96-2.242c-0.2-0.086-0.401-0.162-0.607-0.229  c-0.564-2.941-1.856-5.064-3.85-6.311c-1.912-1.199-3.968-1.531-6.076-0.942c-0.725-0.672-1.567-1.218-2.462-1.595  c-2.402-1.011-5.142-0.754-7.522,0.696c-0.266,0.163-0.522,0.34-0.723,0.502c-0.76,0.533-1.406,1.203-1.893,1.959  c-0.547-0.068-1.1-0.083-1.685-0.047c-0.356,0.022-0.711,0.091-1.069,0.183c-1.679-0.891-3.461-1.122-5.28-0.618  c-0.694-0.638-1.496-1.158-2.346-1.515c-2.303-0.969-4.936-0.725-7.224,0.669c-0.255,0.155-0.499,0.325-0.693,0.48  c-0.724,0.508-1.339,1.145-1.805,1.864c-0.52-0.064-1.039-0.077-1.594-0.043c-1.002,0.061-1.988,0.403-3.103,1.074  c-1.453,0.876-2.538,2.413-3.138,4.448c-0.205,0.696-0.296,1.459-0.27,2.242c-1.261,0.403-2.368,1.195-3.112,2.244  c-1.852,2.614-1.579,6.073,0.635,8.046c1.068,0.952,2.462,1.451,3.98,1.372c0.954,1.484,2.315,2.565,3.803,3.004  c1.287,0.378,2.42,0.45,3.469,0.221c1.19-0.261,2.226-0.786,3.152-1.599c1.374,1.15,3.248,1.805,5.119,1.805  c0.403,0,0.806-0.03,1.204-0.093c1.572-0.247,3.051-0.961,4.279-2.065c0.812,0.786,1.741,1.383,2.74,1.676  c1.34,0.395,2.522,0.471,3.61,0.231c1.251-0.273,2.339-0.827,3.307-1.687c1.434,1.212,3.397,1.902,5.359,1.902  c0.421,0,0.839-0.031,1.253-0.097c1.919-0.3,3.696-1.269,5.069-2.754c2.938,1.219,6.466,0.786,8.812-1.141  c1.803-1.479,2.994-3.512,3.271-5.579C488.472,209.838,487.871,207.63,486.513,206.083z M450.19,219.922  c-1.926,0.297-4-0.348-5.421-1.802c-0.171-0.181-0.476-0.215-0.724-0.206c-0.249,0.005-0.548,0.187-0.711,0.376  c-0.798,0.818-1.663,1.306-2.721,1.539c-0.752,0.163-1.602,0.1-2.597-0.191c-1.208-0.356-2.323-1.327-3.057-2.666  c-0.176-0.321-0.525-0.509-0.895-0.447c-1.183,0.17-2.334-0.153-3.157-0.889c-1.76-1.569-1.504-4.116-0.371-5.716  c0.631-0.89,1.642-1.518,2.774-1.727c0.46-0.085,0.774-0.516,0.713-0.98c-0.106-0.811-0.056-1.605,0.149-2.3  c0.329-1.119,1.007-2.625,2.359-3.438c0.863-0.52,1.595-0.782,2.303-0.825c0.621-0.035,1.189-0.003,1.775,0.113  c0.39,0.078,0.775-0.114,0.953-0.464c0.355-0.695,0.898-1.313,1.611-1.815c0.179-0.141,0.365-0.27,0.559-0.388  c1.801-1.097,3.853-1.298,5.628-0.55c0.795,0.335,1.539,0.852,2.15,1.497c0.239,0.252,0.7,0.305,1.024,0.188  c0.956-0.34,1.914-0.369,2.865-0.152c-1.453,0.923-2.548,2.484-3.157,4.548c-0.216,0.734-0.31,1.54-0.28,2.364  c-1.324,0.416-2.487,1.245-3.265,2.344c-1.926,2.717-1.643,6.314,0.659,8.366c1.116,0.995,2.61,1.491,4.158,1.424  c0.03,0.048,0.069,0.086,0.1,0.133c-0.009,0.008-0.021,0.01-0.03,0.018C452.604,219.157,451.431,219.727,450.19,219.922z   M486.42,211.911c-0.219,1.631-1.183,3.255-2.644,4.454c-1.987,1.628-5.084,1.896-7.527,0.642c-0.365-0.189-0.826-0.096-1.088,0.233  c-1.15,1.437-2.721,2.375-4.421,2.642c-2.045,0.313-4.217-0.367-5.713-1.899c-0.157-0.167-0.429-0.204-0.665-0.204  c-0.021,0-0.043,0-0.062,0.001c-0.251,0.006-0.552,0.191-0.715,0.381c-0.843,0.864-1.756,1.379-2.869,1.623  c-0.792,0.174-1.689,0.108-2.737-0.201c-1.275-0.374-2.451-1.398-3.225-2.809c-0.175-0.321-0.524-0.499-0.895-0.447  c-1.257,0.175-2.468-0.164-3.336-0.938c-1.86-1.659-1.591-4.349-0.394-6.038c0.665-0.939,1.733-1.604,2.928-1.823  c0.46-0.085,0.775-0.516,0.713-0.981c-0.114-0.853-0.059-1.691,0.157-2.422c0.347-1.178,1.06-2.763,2.487-3.624  c0.906-0.546,1.677-0.822,2.428-0.868c0.654-0.044,1.251-0.003,1.867,0.118c0.401,0.077,0.775-0.114,0.953-0.463  c0.376-0.734,0.949-1.386,1.7-1.914c0.187-0.148,0.382-0.284,0.588-0.409c1.897-1.155,4.056-1.367,5.926-0.578  c0.841,0.354,1.625,0.898,2.262,1.575c0.238,0.251,0.702,0.3,1.03,0.188c1.661-0.588,3.385-0.367,4.996,0.643  c1.663,1.043,2.721,2.946,3.142,5.654c0.056,0.354,0.32,0.64,0.67,0.721c0.298,0.07,0.592,0.164,0.878,0.288  c0.856,0.372,1.577,0.924,2.337,1.79C486.214,208.408,486.663,210.109,486.42,211.911z"/><g><path d="M10.066,14.709"/><path class="st0" d="M14.19,10.456c0,0-0.578-0.578-2.045,0c0,0-2.845-2.645-5.601,0.622c0,0-3.889-0.089-3.689,3.601   c0,0-4.601,2.689,0.244,4.867c0,0,2.134,3.245,4.978,0.756c0,0,3.645,2.711,4.978-0.4c0,0,3.023,3.556,4.845,0.133   c0,0,3.245,3.156,5.645-0.311c0,0,5.869,2.199,5.512-4.724c0,0-1.067-1.944-2.445-1.811c0,0-0.845-4.667-4.267-3.467   c0,0-4.134-2.045-6.001,0.578C16.345,10.3,14.672,10.219,14.19,10.456z"/><path class="st1" d="M17.105,11.453c0,0,2.374-3.07,4.513,0c0,0,3.319-1.362,4.106,2.037c0.049,0.211,0,0.867,0,0.867   s1.467-0.033,2.3,1.133c0,0,0.8,3.934-3.934,3.5c0,0,0.018-0.277-1.444,1.157l0.899-0.424c0,0,3.843,1.467,5.528-2.1   c0,0,0.951-3.1-2.116-4.434c0,0-1.011-4.634-5.04-3.4c0,0-3.128-2.367-5.362,0.433c0,0-1.3,0.627,0.4,1.23"/><path class="st1" d="M13.04,12.015c0,0-2.428-3.651-4.567-0.456c0,0-3.265-0.962-4.052,2.575c-0.049,0.22,0,0.902,0,0.902   s-1.66-0.19-2.053,1.23c-0.392,1.417-0.062,2.93,4.688,3.145c0.427,0.019,2.517,0.472,0.442,1.651c0,0-0.261-0.169-0.359-0.201   c-1.482-0.493-3.4-0.45-5.675-2.617c0,0-0.452-2.731,1.757-3.873c0,0-0.067-3.562,5.005-4.088c0,0,0.296-2.225,6.647,0.476   c0,0,0.015,0.628-1.685,1.255"/><ellipse class="st1" cx="19.965" cy="12.493" rx="5.601" ry="3.052"/><path class="st1" d="M12.799,12.725c-0.978,0.922-2.022,2.647-4.516,2.647s-4.516-1.185-4.516-2.647   c0-0.881,1.355-1.325,2.778-1.958C7.483,10.349,8.309,9.552,9.3,9.552C11.794,9.552,14.039,11.556,12.799,12.725z"/><path d="M28.812,14.092c-0.45-0.512-0.906-0.858-1.437-1.088c-0.097-0.042-0.195-0.079-0.295-0.111   c-0.274-1.428-0.901-2.458-1.869-3.063c-0.928-0.582-1.926-0.743-2.949-0.457c-0.352-0.326-0.761-0.591-1.195-0.774   c-1.166-0.491-2.496-0.366-3.652,0.338c-0.129,0.079-0.253,0.165-0.351,0.244c-0.369,0.259-0.682,0.584-0.919,0.951   c-0.266-0.033-0.534-0.04-0.818-0.023c-0.173,0.011-0.345,0.044-0.519,0.089c-0.815-0.433-1.68-0.545-2.563-0.3   c-0.337-0.31-0.726-0.562-1.139-0.736C9.99,8.691,8.711,8.809,7.601,9.486C7.477,9.561,7.358,9.643,7.264,9.719   c-0.352,0.246-0.65,0.556-0.876,0.905c-0.253-0.031-0.504-0.038-0.774-0.021c-0.487,0.03-0.965,0.196-1.506,0.521   c-0.705,0.425-1.232,1.172-1.523,2.159c-0.099,0.338-0.144,0.708-0.131,1.088c-0.612,0.196-1.15,0.58-1.511,1.089   c-0.899,1.269-0.766,2.948,0.308,3.906c0.518,0.462,1.195,0.704,1.932,0.666c0.463,0.72,1.124,1.245,1.846,1.458   c0.625,0.183,1.175,0.218,1.684,0.107c0.578-0.127,1.08-0.381,1.53-0.776c0.667,0.558,1.577,0.876,2.485,0.876   c0.196,0,0.391-0.015,0.584-0.045c0.763-0.12,1.481-0.467,2.077-1.002c0.394,0.381,0.845,0.671,1.33,0.814   c0.651,0.192,1.224,0.229,1.752,0.112c0.607-0.132,1.136-0.402,1.605-0.819c0.696,0.588,1.649,0.923,2.601,0.923   c0.204,0,0.407-0.015,0.608-0.047c0.931-0.146,1.794-0.616,2.461-1.337c1.426,0.592,3.139,0.381,4.278-0.554   c0.875-0.718,1.453-1.705,1.588-2.708C29.764,15.915,29.472,14.843,28.812,14.092z M11.18,20.81   c-0.935,0.144-1.942-0.169-2.632-0.875c-0.083-0.088-0.231-0.104-0.352-0.1c-0.121,0.003-0.266,0.091-0.345,0.182   c-0.388,0.397-0.807,0.634-1.321,0.747c-0.365,0.079-0.778,0.048-1.261-0.093c-0.587-0.173-1.128-0.644-1.484-1.294   c-0.085-0.156-0.255-0.247-0.434-0.217c-0.574,0.082-1.133-0.074-1.533-0.431c-0.854-0.762-0.73-1.998-0.18-2.775   c0.306-0.432,0.797-0.737,1.347-0.838c0.223-0.041,0.376-0.251,0.346-0.476c-0.052-0.394-0.027-0.779,0.072-1.116   c0.16-0.543,0.489-1.274,1.145-1.669c0.419-0.253,0.774-0.38,1.118-0.401c0.302-0.017,0.577-0.002,0.862,0.055   c0.189,0.038,0.376-0.055,0.463-0.225c0.172-0.338,0.436-0.638,0.782-0.881c0.087-0.068,0.177-0.131,0.271-0.189   c0.874-0.532,1.871-0.63,2.732-0.267c0.386,0.163,0.747,0.414,1.044,0.727c0.116,0.122,0.34,0.148,0.497,0.091   c0.464-0.165,0.929-0.179,1.391-0.074c-0.706,0.448-1.237,1.206-1.532,2.207c-0.105,0.356-0.151,0.748-0.136,1.148   c-0.643,0.202-1.207,0.604-1.585,1.138c-0.935,1.319-0.798,3.065,0.32,4.061c0.542,0.483,1.267,0.724,2.019,0.691   c0.015,0.023,0.034,0.042,0.049,0.064c-0.004,0.004-0.01,0.005-0.014,0.009C12.352,20.438,11.783,20.715,11.18,20.81z    M28.768,16.921c-0.106,0.792-0.574,1.58-1.284,2.162c-0.965,0.79-2.468,0.92-3.654,0.312c-0.177-0.092-0.401-0.046-0.528,0.113   c-0.558,0.697-1.321,1.153-2.146,1.282c-0.993,0.152-2.047-0.178-2.773-0.922c-0.076-0.081-0.208-0.099-0.323-0.099   c-0.01,0-0.021,0-0.03,0.001c-0.122,0.003-0.268,0.093-0.347,0.185c-0.409,0.419-0.852,0.669-1.393,0.788   c-0.384,0.084-0.82,0.053-1.329-0.097c-0.619-0.182-1.19-0.679-1.565-1.364c-0.085-0.156-0.254-0.242-0.434-0.217   c-0.61,0.085-1.198-0.08-1.619-0.455c-0.903-0.805-0.773-2.111-0.191-2.931c0.323-0.456,0.841-0.779,1.422-0.885   c0.223-0.041,0.376-0.251,0.346-0.476c-0.055-0.414-0.029-0.821,0.076-1.176c0.168-0.572,0.515-1.341,1.207-1.759   c0.44-0.265,0.814-0.399,1.179-0.421c0.317-0.021,0.607-0.002,0.906,0.057c0.195,0.038,0.376-0.055,0.463-0.225   c0.182-0.356,0.46-0.673,0.825-0.929c0.091-0.072,0.185-0.138,0.285-0.198c0.921-0.56,1.969-0.664,2.876-0.281   c0.408,0.172,0.789,0.436,1.098,0.765c0.116,0.122,0.341,0.146,0.5,0.091c0.806-0.285,1.643-0.178,2.425,0.312   c0.807,0.506,1.321,1.43,1.525,2.745c0.027,0.172,0.155,0.31,0.325,0.35c0.145,0.034,0.288,0.08,0.426,0.14   c0.416,0.181,0.766,0.449,1.135,0.869C28.668,15.22,28.885,16.046,28.768,16.921z"/></g></svg>