<?xml version="1.0" encoding="UTF-8"?>
<svg xmlns="http://www.w3.org/2000/svg" xmlns:xlink="http://www.w3.org/1999/xlink" width="100pt" height="100pt" viewBox="0 0 100 100" version="1.1">
<g id="surface1">
<path style=" stroke:none;fill-rule:nonzero;fill:rgb(93.333333%,92.941176%,94.901961%);fill-opacity:1;" d="M 92.109375 48.984375 C 92.109375 72.242188 73.257812 91.09375 50 91.09375 C 26.742188 91.09375 7.890625 72.242188 7.890625 48.984375 C 7.890625 25.726562 26.742188 6.875 50 6.875 C 73.257812 6.875 92.109375 25.726562 92.109375 48.984375 Z M 92.109375 48.984375 "/>
<path style=" stroke:none;fill-rule:nonzero;fill:rgb(82.745098%,83.529412%,90.588235%);fill-opacity:1;" d="M 83.457031 24.941406 C 83.417969 24.511719 83.105469 24.140625 82.695312 24.042969 L 80.058594 23.378906 C 79.960938 23.359375 79.882812 23.28125 79.863281 23.183594 C 79.804688 22.910156 79.726562 22.636719 79.648438 22.382812 C 79.628906 22.285156 79.648438 22.1875 79.726562 22.109375 L 81.679688 20.214844 C 81.992188 19.921875 82.070312 19.453125 81.894531 19.042969 C 81.503906 18.203125 81.035156 17.402344 80.507812 16.640625 C 80.253906 16.289062 79.804688 16.132812 79.394531 16.25 L 76.699219 17.011719 C 76.660156 17.03125 76.601562 17.011719 76.5625 16.972656 C 76.347656 16.738281 76.09375 16.503906 75.859375 16.269531 C 75.820312 16.230469 75.800781 16.191406 75.820312 16.132812 L 76.601562 13.4375 C 76.71875 13.027344 76.5625 12.578125 76.210938 12.324219 C 75.449219 11.796875 74.648438 11.328125 73.808594 10.9375 C 73.417969 10.742188 72.949219 10.839844 72.636719 11.152344 L 70.742188 13.105469 C 70.664062 13.183594 70.566406 13.203125 70.46875 13.183594 C 70.195312 13.105469 69.941406 13.027344 69.667969 12.96875 C 69.570312 12.949219 69.492188 12.871094 69.472656 12.773438 L 68.808594 10.136719 C 68.710938 9.707031 68.339844 9.414062 67.910156 9.375 C 67.460938 9.335938 66.992188 9.316406 66.523438 9.316406 C 66.054688 9.316406 65.585938 9.335938 65.136719 9.375 C 64.707031 9.414062 64.335938 9.726562 64.238281 10.136719 L 63.574219 12.773438 C 63.554688 12.871094 63.476562 12.949219 63.378906 12.96875 C 63.105469 13.027344 62.832031 13.105469 62.578125 13.183594 C 62.480469 13.203125 62.382812 13.183594 62.304688 13.105469 L 60.410156 11.152344 C 60.097656 10.839844 59.648438 10.761719 59.238281 10.9375 C 58.398438 11.328125 57.597656 11.796875 56.835938 12.324219 C 56.484375 12.578125 56.328125 13.027344 56.445312 13.4375 L 57.1875 16.054688 C 57.207031 16.152344 57.1875 16.25 57.109375 16.328125 C 56.914062 16.523438 56.71875 16.71875 56.523438 16.914062 C 56.464844 16.992188 56.347656 17.011719 56.25 16.992188 L 53.632812 16.25 C 53.222656 16.132812 52.773438 16.289062 52.519531 16.640625 C 51.992188 17.402344 51.523438 18.203125 51.132812 19.042969 C 50.9375 19.433594 51.035156 19.902344 51.347656 20.214844 L 53.300781 22.109375 C 53.378906 22.1875 53.398438 22.285156 53.378906 22.382812 C 53.300781 22.65625 53.222656 22.910156 53.164062 23.183594 C 53.144531 23.28125 53.066406 23.359375 52.96875 23.378906 L 50.332031 24.042969 C 49.902344 24.140625 49.609375 24.511719 49.570312 24.941406 C 49.53125 25.390625 49.511719 25.859375 49.511719 26.328125 C 49.511719 26.796875 49.53125 27.265625 49.570312 27.714844 C 49.609375 28.144531 49.921875 28.515625 50.332031 28.613281 L 52.96875 29.277344 C 53.066406 29.296875 53.144531 29.375 53.164062 29.472656 C 53.222656 29.746094 53.300781 30.019531 53.378906 30.273438 C 53.398438 30.371094 53.378906 30.46875 53.300781 30.546875 L 51.347656 32.441406 C 51.035156 32.734375 50.957031 33.203125 51.132812 33.613281 C 51.523438 34.453125 51.992188 35.253906 52.519531 36.015625 C 52.773438 36.367188 53.222656 36.523438 53.632812 36.40625 L 56.25 35.664062 C 56.347656 35.644531 56.445312 35.664062 56.523438 35.742188 C 56.71875 35.9375 56.914062 36.132812 57.109375 36.328125 C 57.1875 36.386719 57.207031 36.503906 57.1875 36.601562 L 56.445312 39.21875 C 56.328125 39.628906 56.484375 40.078125 56.835938 40.332031 C 57.597656 40.859375 58.398438 41.328125 59.238281 41.71875 C 59.628906 41.914062 60.097656 41.816406 60.410156 41.503906 L 62.304688 39.550781 C 62.382812 39.472656 62.480469 39.453125 62.578125 39.472656 C 62.851562 39.550781 63.105469 39.628906 63.378906 39.6875 C 63.476562 39.707031 63.554688 39.785156 63.574219 39.882812 L 64.238281 42.519531 C 64.335938 42.949219 64.707031 43.242188 65.136719 43.28125 C 65.585938 43.320312 66.054688 43.339844 66.523438 43.339844 C 66.992188 43.339844 67.460938 43.320312 67.910156 43.28125 C 68.339844 43.242188 68.710938 42.929688 68.808594 42.519531 L 69.472656 39.882812 C 69.492188 39.785156 69.570312 39.707031 69.667969 39.6875 C 69.941406 39.628906 70.214844 39.550781 70.46875 39.472656 C 70.566406 39.453125 70.664062 39.472656 70.742188 39.550781 L 72.636719 41.503906 C 72.949219 41.816406 73.398438 41.894531 73.808594 41.71875 C 74.648438 41.328125 75.449219 40.859375 76.210938 40.332031 C 76.5625 40.078125 76.71875 39.628906 76.601562 39.21875 L 75.859375 36.601562 C 75.839844 36.503906 75.859375 36.40625 75.9375 36.328125 C 76.132812 36.132812 76.328125 35.9375 76.523438 35.742188 C 76.601562 35.664062 76.699219 35.644531 76.796875 35.664062 L 79.414062 36.40625 C 79.824219 36.523438 80.273438 36.367188 80.527344 36.015625 C 81.054688 35.253906 81.523438 34.453125 81.914062 33.613281 C 82.109375 33.222656 82.011719 32.753906 81.699219 32.441406 L 79.746094 30.546875 C 79.667969 30.46875 79.648438 30.371094 79.6875 30.273438 C 79.765625 30 79.84375 29.746094 79.902344 29.472656 C 79.921875 29.375 80 29.296875 80.097656 29.277344 L 82.734375 28.613281 C 83.164062 28.515625 83.457031 28.144531 83.496094 27.714844 C 83.535156 27.265625 83.554688 26.796875 83.554688 26.328125 C 83.515625 25.859375 83.496094 25.390625 83.457031 24.941406 Z M 66.484375 34.609375 C 61.914062 34.609375 58.203125 30.898438 58.203125 26.328125 C 58.203125 21.757812 61.914062 18.046875 66.484375 18.046875 C 71.054688 18.046875 74.765625 21.757812 74.765625 26.328125 C 74.785156 30.898438 71.074219 34.609375 66.484375 34.609375 Z M 66.484375 34.609375 "/>
<path style="fill-rule:nonzero;fill:rgb(94.117647%,76.470588%,18.823529%);fill-opacity:1;stroke-width:6;stroke-linecap:butt;stroke-linejoin:miter;stroke:rgb(11.764706%,14.117647%,49.411765%);stroke-opacity:1;stroke-miterlimit:10;" d="M 411.5 119.5 C 411.3 117.3 409.7 115.4 407.6 114.9 L 394.1 111.5 C 393.6 111.4 393.2 111 393.1 110.5 C 392.8 109.1 392.4 107.7 392 106.4 C 391.9 105.9 392 105.4 392.4 105 L 402.4 95.3 C 404 93.8 404.4 91.4 403.5 89.3 C 401.5 85 399.1 80.9 396.4 77 C 395.1 75.2 392.8 74.4 390.7 75 L 376.8 79 C 376.6 79.1 376.3 79 376.1 78.8 C 375 77.6 373.7 76.4 372.5 75.2 C 372.3 75 372.2 74.8 372.3 74.5 L 376.3 60.7 C 376.9 58.6 376.1 56.3 374.3 55 C 370.4 52.3 366.3 49.9 362 47.9 C 360 46.9 357.6 47.4 356 49 L 346.3 59 C 345.9 59.4 345.4 59.5 344.9 59.4 C 343.5 59 342.2 58.6 340.8 58.3 C 340.3 58.2 339.9 57.8 339.8 57.3 L 336.4 43.8 C 335.9 41.6 334 40.1 331.8 39.9 C 329.5 39.7 327.1 39.6 324.7 39.6 C 322.3 39.6 319.9 39.7 317.6 39.9 C 315.4 40.1 313.5 41.7 313 43.8 L 309.6 57.3 C 309.5 57.8 309.1 58.2 308.6 58.3 C 307.2 58.6 305.8 59 304.5 59.4 C 304 59.5 303.5 59.4 303.1 59 L 293.4 49 C 291.8 47.4 289.5 47 287.4 47.9 C 283.1 49.9 279 52.3 275.1 55 C 273.3 56.3 272.5 58.6 273.1 60.7 L 276.9 74.1 C 277 74.6 276.9 75.1 276.5 75.5 C 275.5 76.5 274.5 77.5 273.5 78.5 C 273.2 78.9 272.6 79 272.1 78.9 L 258.7 75 C 256.6 74.4 254.3 75.2 253 77 C 250.3 80.9 247.9 85 245.9 89.3 C 244.9 91.3 245.4 93.7 247 95.3 L 257 105 C 257.4 105.4 257.5 105.9 257.4 106.4 C 257 107.8 256.6 109.1 256.3 110.5 C 256.2 111 255.8 111.4 255.3 111.5 L 241.8 114.9 C 239.6 115.4 238.1 117.3 237.9 119.5 C 237.7 121.8 237.6 124.2 237.6 126.6 C 237.6 129 237.7 131.4 237.9 133.7 C 238.1 135.9 239.7 137.8 241.8 138.3 L 255.3 141.7 C 255.8 141.8 256.2 142.2 256.3 142.7 C 256.6 144.1 257 145.5 257.4 146.8 C 257.5 147.3 257.4 147.8 257 148.2 L 247 157.9 C 245.4 159.4 245 161.8 245.9 163.9 C 247.9 168.2 250.3 172.3 253 176.2 C 254.3 178 256.6 178.8 258.7 178.2 L 272.1 174.4 C 272.6 174.3 273.1 174.4 273.5 174.8 C 274.5 175.8 275.5 176.8 276.5 177.8 C 276.9 178.1 277 178.7 276.9 179.2 L 273.1 192.6 C 272.5 194.7 273.3 197 275.1 198.3 C 279 201 283.1 203.4 287.4 205.4 C 289.4 206.4 291.8 205.9 293.4 204.3 L 303.1 194.3 C 303.5 193.9 304 193.8 304.5 193.9 C 305.9 194.3 307.2 194.7 308.6 195 C 309.1 195.1 309.5 195.5 309.6 196 L 313 209.5 C 313.5 211.7 315.4 213.2 317.6 213.4 C 319.9 213.6 322.3 213.7 324.7 213.7 C 327.1 213.7 329.5 213.6 331.8 213.4 C 334 213.2 335.9 211.6 336.4 209.5 L 339.8 196 C 339.9 195.5 340.3 195.1 340.8 195 C 342.2 194.7 343.6 194.3 344.9 193.9 C 345.4 193.8 345.9 193.9 346.3 194.3 L 356 204.3 C 357.6 205.9 359.9 206.3 362 205.4 C 366.3 203.4 370.4 201 374.3 198.3 C 376.1 197 376.9 194.7 376.3 192.6 L 372.5 179.2 C 372.4 178.7 372.5 178.2 372.9 177.8 C 373.9 176.8 374.9 175.8 375.9 174.8 C 376.3 174.4 376.8 174.3 377.3 174.4 L 390.7 178.2 C 392.8 178.8 395.1 178 396.4 176.2 C 399.1 172.3 401.5 168.2 403.5 163.9 C 404.5 161.9 404 159.5 402.4 157.9 L 392.4 148.2 C 392 147.8 391.9 147.3 392.1 146.8 C 392.5 145.4 392.9 144.1 393.2 142.7 C 393.3 142.2 393.7 141.8 394.2 141.7 L 407.7 138.3 C 409.9 137.8 411.4 135.9 411.6 133.7 C 411.8 131.4 411.9 129 411.9 126.6 C 411.8 124.3 411.7 121.9 411.5 119.5 Z M 324.6 169.1 C 301.2 169.1 282.2 150.1 282.2 126.7 C 282.2 103.3 301.2 84.3 324.6 84.3 C 348 84.3 367 103.3 367 126.7 C 367.1 150.1 348.1 169.1 324.6 169.1 Z M 324.6 169.1 " transform="matrix(0.195312,0,0,0.195312,0,0)"/>
<path style="fill:none;stroke-width:3;stroke-linecap:round;stroke-linejoin:miter;stroke:rgb(11.764706%,14.117647%,49.411765%);stroke-opacity:1;stroke-miterlimit:10;" d="M 299.2 82.1 C 303.8 78.4 309.7 76.3 316.1 76.3 " transform="matrix(0.195312,0,0,0.195312,0,0)"/>
<path style="fill:none;stroke-width:7;stroke-linecap:round;stroke-linejoin:miter;stroke:rgb(100%,100%,100%);stroke-opacity:1;stroke-miterlimit:10;" d="M 227.7 81.9 L 218.4 82.2 " transform="matrix(0.195312,0,0,0.195312,0,0)"/>
<path style="fill:none;stroke-width:7;stroke-linecap:round;stroke-linejoin:miter;stroke:rgb(100%,100%,100%);stroke-opacity:1;stroke-miterlimit:10;" d="M 233.7 55.9 L 237.7 63.6 " transform="matrix(0.195312,0,0,0.195312,0,0)"/>
<path style="fill:none;stroke-width:7;stroke-linecap:round;stroke-linejoin:miter;stroke:rgb(100%,100%,100%);stroke-opacity:1;stroke-miterlimit:10;" d="M 223.6 67.1 L 232 72.3 " transform="matrix(0.195312,0,0,0.195312,0,0)"/>
<path style=" stroke:none;fill-rule:nonzero;fill:rgb(82.745098%,83.529412%,90.588235%);fill-opacity:1;" d="M 69.628906 64.257812 C 69.570312 63.574219 69.101562 63.007812 68.4375 62.851562 L 64.296875 61.816406 C 64.140625 61.777344 64.023438 61.660156 63.984375 61.503906 C 63.886719 61.074219 63.769531 60.664062 63.652344 60.234375 C 63.613281 60.078125 63.652344 59.921875 63.769531 59.804688 L 66.835938 56.835938 C 67.324219 56.367188 67.460938 55.625 67.167969 55.019531 C 66.542969 53.691406 65.820312 52.441406 64.980469 51.25 C 64.589844 50.683594 63.886719 50.449219 63.242188 50.625 L 59.003906 51.835938 C 58.925781 51.855469 58.847656 51.835938 58.789062 51.777344 C 58.4375 51.40625 58.066406 51.035156 57.695312 50.683594 C 57.636719 50.625 57.617188 50.546875 57.636719 50.46875 L 58.847656 46.230469 C 59.042969 45.585938 58.789062 44.882812 58.222656 44.492188 C 57.03125 43.671875 55.78125 42.949219 54.453125 42.304688 C 53.828125 42.011719 53.105469 42.148438 52.636719 42.636719 L 49.667969 45.703125 C 49.550781 45.820312 49.394531 45.859375 49.257812 45.820312 C 48.847656 45.703125 48.417969 45.585938 47.988281 45.488281 C 47.832031 45.449219 47.714844 45.332031 47.675781 45.175781 L 46.640625 41.035156 C 46.484375 40.371094 45.898438 39.882812 45.234375 39.84375 C 44.511719 39.785156 43.789062 39.746094 43.066406 39.746094 C 42.34375 39.746094 41.601562 39.785156 40.898438 39.84375 C 40.214844 39.902344 39.648438 40.390625 39.492188 41.035156 L 38.457031 45.175781 C 38.417969 45.332031 38.300781 45.449219 38.144531 45.488281 C 37.714844 45.585938 37.304688 45.703125 36.875 45.820312 C 36.71875 45.859375 36.5625 45.820312 36.464844 45.703125 L 33.496094 42.636719 C 33.027344 42.148438 32.285156 42.011719 31.660156 42.304688 C 30.351562 42.929688 29.082031 43.652344 27.890625 44.492188 C 27.324219 44.882812 27.070312 45.585938 27.265625 46.230469 L 28.4375 50.351562 C 28.476562 50.507812 28.4375 50.664062 28.320312 50.761719 C 28.007812 51.054688 27.695312 51.367188 27.402344 51.679688 C 27.304688 51.796875 27.128906 51.835938 26.992188 51.796875 L 22.871094 50.625 C 22.207031 50.429688 21.523438 50.683594 21.132812 51.25 C 20.3125 52.441406 19.570312 53.691406 18.945312 55.019531 C 18.652344 55.644531 18.789062 56.367188 19.277344 56.835938 L 22.34375 59.804688 C 22.460938 59.921875 22.5 60.078125 22.460938 60.234375 C 22.34375 60.644531 22.226562 61.074219 22.128906 61.503906 C 22.089844 61.660156 21.972656 61.777344 21.816406 61.816406 L 17.675781 62.851562 C 17.011719 63.027344 16.523438 63.59375 16.484375 64.257812 C 16.425781 64.980469 16.386719 65.703125 16.386719 66.425781 C 16.386719 67.167969 16.425781 67.890625 16.484375 68.59375 C 16.542969 69.277344 17.011719 69.84375 17.675781 70 L 21.816406 71.035156 C 21.972656 71.074219 22.089844 71.191406 22.128906 71.347656 C 22.226562 71.777344 22.34375 72.1875 22.460938 72.617188 C 22.5 72.773438 22.460938 72.929688 22.34375 73.046875 L 19.277344 76.015625 C 18.789062 76.484375 18.652344 77.226562 18.945312 77.832031 C 19.570312 79.160156 20.292969 80.410156 21.132812 81.601562 C 21.523438 82.167969 22.226562 82.421875 22.871094 82.226562 L 26.992188 81.054688 C 27.148438 81.015625 27.304688 81.054688 27.402344 81.171875 C 27.695312 81.484375 28.007812 81.796875 28.320312 82.089844 C 28.4375 82.1875 28.476562 82.363281 28.4375 82.5 L 27.265625 86.621094 C 27.070312 87.285156 27.324219 87.96875 27.890625 88.359375 C 29.082031 89.179688 30.332031 89.921875 31.660156 90.546875 C 32.285156 90.839844 33.007812 90.703125 33.496094 90.214844 L 36.464844 87.148438 C 36.582031 87.03125 36.738281 86.992188 36.875 87.03125 C 37.285156 87.148438 37.714844 87.265625 38.144531 87.363281 C 38.300781 87.402344 38.417969 87.519531 38.457031 87.675781 L 39.492188 91.816406 C 39.648438 92.480469 40.234375 92.96875 40.898438 93.007812 C 41.621094 93.066406 42.34375 93.105469 43.066406 93.105469 C 43.789062 93.105469 44.53125 93.066406 45.234375 93.007812 C 45.917969 92.949219 46.484375 92.460938 46.640625 91.816406 L 47.65625 87.695312 C 47.695312 87.539062 47.8125 87.421875 47.96875 87.382812 C 48.398438 87.285156 48.808594 87.167969 49.238281 87.050781 C 49.394531 87.011719 49.550781 87.050781 49.648438 87.167969 L 52.617188 90.234375 C 53.085938 90.722656 53.828125 90.859375 54.453125 90.566406 C 55.761719 89.941406 57.03125 89.21875 58.222656 88.378906 C 58.789062 87.988281 59.023438 87.285156 58.847656 86.640625 L 57.675781 82.519531 C 57.636719 82.363281 57.675781 82.207031 57.792969 82.109375 C 58.105469 81.816406 58.417969 81.503906 58.710938 81.191406 C 58.828125 81.074219 58.984375 81.035156 59.121094 81.074219 L 63.242188 82.246094 C 63.886719 82.441406 64.589844 82.1875 64.980469 81.621094 C 65.800781 80.429688 66.542969 79.179688 67.167969 77.851562 C 67.460938 77.226562 67.324219 76.503906 66.835938 76.035156 L 63.769531 73.066406 C 63.652344 72.949219 63.613281 72.792969 63.671875 72.65625 C 63.789062 72.246094 63.90625 71.816406 64.003906 71.386719 C 64.042969 71.230469 64.160156 71.113281 64.316406 71.074219 L 68.457031 70.039062 C 69.121094 69.863281 69.609375 69.296875 69.648438 68.632812 C 69.707031 67.910156 69.746094 67.1875 69.746094 66.464844 C 69.707031 65.703125 69.6875 64.980469 69.628906 64.257812 Z M 43.027344 79.433594 C 35.839844 79.433594 30.019531 73.613281 30.019531 66.425781 C 30.019531 59.238281 35.839844 53.417969 43.027344 53.417969 C 50.214844 53.417969 56.035156 59.238281 56.035156 66.425781 C 56.015625 73.613281 50.195312 79.433594 43.027344 79.433594 Z M 43.027344 79.433594 "/>
<path style="fill:none;stroke-width:7;stroke-linecap:round;stroke-linejoin:miter;stroke:rgb(100%,100%,100%);stroke-opacity:1;stroke-miterlimit:10;" d="M 372.5 329.2 L 380.3 324.2 " transform="matrix(0.195312,0,0,0.195312,0,0)"/>
<path style="fill:none;stroke-width:7;stroke-linecap:round;stroke-linejoin:miter;stroke:rgb(100%,100%,100%);stroke-opacity:1;stroke-miterlimit:10;" d="M 380.3 354.7 L 373 350 " transform="matrix(0.195312,0,0,0.195312,0,0)"/>
<path style="fill:none;stroke-width:7;stroke-linecap:round;stroke-linejoin:miter;stroke:rgb(100%,100%,100%);stroke-opacity:1;stroke-miterlimit:10;" d="M 383.4 340 L 373.6 339.6 " transform="matrix(0.195312,0,0,0.195312,0,0)"/>
<path style="fill-rule:nonzero;fill:rgb(85.490196%,52.54902%,49.019608%);fill-opacity:1;stroke-width:6;stroke-linecap:butt;stroke-linejoin:miter;stroke:rgb(11.764706%,14.117647%,49.411765%);stroke-opacity:1;stroke-miterlimit:10;" d="M 340.7 320.9 C 340.4 317.4 338 314.5 334.6 313.7 L 313.4 308.4 C 312.6 308.2 312 307.6 311.8 306.8 C 311.3 304.6 310.7 302.5 310.1 300.3 C 309.9 299.5 310.1 298.7 310.7 298.1 L 326.4 282.9 C 328.9 280.5 329.6 276.7 328.1 273.6 C 324.9 266.8 321.2 260.4 316.9 254.3 C 314.9 251.4 311.3 250.2 308 251.1 L 286.3 257.3 C 285.9 257.4 285.5 257.3 285.2 257 C 283.4 255.1 281.5 253.2 279.6 251.4 C 279.3 251.1 279.2 250.7 279.3 250.3 L 285.5 228.6 C 286.5 225.3 285.2 221.7 282.3 219.7 C 276.2 215.5 269.8 211.8 263 208.5 C 259.8 207 256.1 207.7 253.7 210.2 L 238.5 225.9 C 237.9 226.5 237.1 226.7 236.4 226.5 C 234.3 225.9 232.1 225.3 229.9 224.8 C 229.1 224.6 228.5 224 228.3 223.2 L 223 202 C 222.2 198.6 219.2 196.1 215.8 195.9 C 212.1 195.6 208.4 195.4 204.7 195.4 C 201 195.4 197.2 195.6 193.6 195.9 C 190.1 196.2 187.2 198.7 186.4 202 L 181.1 223.2 C 180.9 224 180.3 224.6 179.5 224.8 C 177.3 225.3 175.2 225.9 173 226.5 C 172.2 226.7 171.4 226.5 170.9 225.9 L 155.7 210.2 C 153.3 207.7 149.5 207 146.3 208.5 C 139.6 211.7 133.1 215.4 127 219.7 C 124.1 221.7 122.8 225.3 123.8 228.6 L 129.8 249.7 C 130 250.5 129.8 251.3 129.2 251.8 C 127.6 253.3 126 254.9 124.5 256.5 C 124 257.1 123.1 257.3 122.4 257.1 L 101.3 251.1 C 97.9 250.1 94.4 251.4 92.4 254.3 C 88.2 260.4 84.4 266.8 81.2 273.6 C 79.7 276.8 80.4 280.5 82.9 282.9 L 98.6 298.1 C 99.2 298.7 99.4 299.5 99.2 300.3 C 98.6 302.4 98 304.6 97.5 306.8 C 97.3 307.6 96.7 308.2 95.9 308.4 L 74.7 313.7 C 71.3 314.6 68.8 317.5 68.6 320.9 C 68.3 324.6 68.1 328.3 68.1 332 C 68.1 335.8 68.3 339.5 68.6 343.1 C 68.9 346.6 71.3 349.5 74.7 350.3 L 95.9 355.6 C 96.7 355.8 97.3 356.4 97.5 357.2 C 98 359.4 98.6 361.5 99.2 363.7 C 99.4 364.5 99.2 365.3 98.6 365.9 L 82.9 381.1 C 80.4 383.5 79.7 387.3 81.2 390.4 C 84.4 397.2 88.1 403.6 92.4 409.7 C 94.4 412.6 98 413.9 101.3 412.9 L 122.4 406.9 C 123.2 406.7 124 406.9 124.5 407.5 C 126 409.1 127.6 410.7 129.2 412.2 C 129.8 412.7 130 413.6 129.8 414.3 L 123.8 435.4 C 122.8 438.8 124.1 442.3 127 444.3 C 133.1 448.5 139.5 452.3 146.3 455.5 C 149.5 457 153.2 456.3 155.7 453.8 L 170.9 438.1 C 171.5 437.5 172.3 437.3 173 437.5 C 175.1 438.1 177.3 438.7 179.5 439.2 C 180.3 439.4 180.9 440 181.1 440.8 L 186.4 462 C 187.2 465.4 190.2 467.9 193.6 468.1 C 197.3 468.4 201 468.6 204.7 468.6 C 208.4 468.6 212.2 468.4 215.8 468.1 C 219.3 467.8 222.2 465.3 223 462 L 228.3 440.8 C 228.5 440 229.1 439.4 229.9 439.2 C 232.1 438.7 234.2 438.1 236.4 437.5 C 237.2 437.3 238 437.5 238.5 438.1 L 253.7 453.8 C 256.1 456.3 259.9 457 263.1 455.5 C 269.8 452.3 276.3 448.6 282.4 444.3 C 285.3 442.3 286.5 438.7 285.6 435.4 L 279.6 414.3 C 279.4 413.5 279.6 412.7 280.2 412.2 C 281.8 410.7 283.4 409.1 284.9 407.5 C 285.5 406.9 286.3 406.7 287 406.9 L 308.1 412.9 C 311.4 413.9 315 412.6 317 409.7 C 321.2 403.6 325 397.2 328.2 390.4 C 329.7 387.2 329 383.5 326.5 381.1 L 310.6 366 C 310 365.4 309.8 364.6 310.1 363.9 C 310.7 361.8 311.3 359.6 311.8 357.4 C 312 356.6 312.6 356 313.4 355.8 L 334.6 350.5 C 338 349.6 340.5 346.7 340.7 343.3 C 341 339.6 341.2 335.9 341.2 332.2 C 341.1 328.3 341 324.6 340.7 320.9 Z M 204.5 398.6 C 167.7 398.6 137.9 368.8 137.9 332 C 137.9 295.2 167.7 265.4 204.5 265.4 C 241.3 265.4 271 295.3 271 332 C 271 368.8 241.2 398.6 204.5 398.6 Z M 204.5 398.6 " transform="matrix(0.195312,0,0,0.195312,0,0)"/>
<path style="fill:none;stroke-width:3;stroke-linecap:round;stroke-linejoin:miter;stroke:rgb(11.764706%,14.117647%,49.411765%);stroke-opacity:1;stroke-miterlimit:10;" d="M 164.7 262.2 C 172 256.5 181.2 253 191.2 253 " transform="matrix(0.195312,0,0,0.195312,0,0)"/>
<path style="fill-rule:nonzero;fill:rgb(41.176471%,67.843137%,96.862745%);fill-opacity:1;stroke-width:2.5;stroke-linecap:round;stroke-linejoin:miter;stroke:rgb(11.764706%,14.117647%,49.411765%);stroke-opacity:1;stroke-miterlimit:10;" d="M 107.9 382.4 L 116 388.5 " transform="matrix(0.195312,0,0,0.195312,0,0)"/>
<path style="fill-rule:nonzero;fill:rgb(41.176471%,67.843137%,96.862745%);fill-opacity:1;stroke-width:2.5;stroke-linecap:round;stroke-linejoin:miter;stroke:rgb(11.764706%,14.117647%,49.411765%);stroke-opacity:1;stroke-miterlimit:10;" d="M 107.9 374.7 L 124 387 " transform="matrix(0.195312,0,0,0.195312,0,0)"/>
<path style="fill-rule:nonzero;fill:rgb(41.176471%,67.843137%,96.862745%);fill-opacity:1;stroke-width:2.5;stroke-linecap:round;stroke-linejoin:miter;stroke:rgb(11.764706%,14.117647%,49.411765%);stroke-opacity:1;stroke-miterlimit:10;" d="M 119.6 375.7 L 124 379.1 " transform="matrix(0.195312,0,0,0.195312,0,0)"/>
<path style="fill:none;stroke-width:5;stroke-linecap:round;stroke-linejoin:miter;stroke:rgb(11.764706%,14.117647%,49.411765%);stroke-opacity:1;stroke-miterlimit:10;" d="M 406.7 267.2 L 391.6 257.8 C 391.4 257.7 391.2 257.8 391.2 258 L 392.1 273.8 C 392.1 273.9 392 273.9 392 273.9 L 379.6 264.1 " transform="matrix(0.195312,0,0,0.195312,0,0)"/>
<path style="fill:none;stroke-width:5;stroke-linecap:round;stroke-linejoin:miter;stroke:rgb(11.764706%,14.117647%,49.411765%);stroke-opacity:1;stroke-miterlimit:10;" d="M 174.7 133.5 L 188.6 142.6 C 188.7 142.7 188.7 142.9 188.6 143 L 174.8 148.4 C 174.7 148.4 174.7 148.5 174.8 148.5 L 188 155.2 " transform="matrix(0.195312,0,0,0.195312,0,0)"/>
</g>
</svg>
